<?xml version="1.0" encoding="UTF-8" standalone="no"?>
<!DOCTYPE svg PUBLIC "-//W3C//DTD SVG 1.1//EN"
 "http://www.w3.org/Graphics/SVG/1.1/DTD/svg11.dtd">
<!-- Generated by graphviz version 2.44.0 (0)
 -->
<!-- Pages: 1 -->
<svg width="1184pt" height="692pt"
 viewBox="0.00 0.00 1183.77 692.00" xmlns="http://www.w3.org/2000/svg" xmlns:xlink="http://www.w3.org/1999/xlink">
<g id="graph0" class="graph" transform="scale(1 1) rotate(0) translate(4 688)">
<polygon fill="white" stroke="transparent" points="-4,4 -4,-688 1179.77,-688 1179.77,4 -4,4"/>
<!-- [root] azurerm_network_interface.nic (expand) -->
<g id="node1" class="node">
<title>[root] azurerm_network_interface.nic (expand)</title>
<polygon fill="none" stroke="black" points="820.27,-324 590.27,-324 590.27,-288 820.27,-288 820.27,-324"/>
<text text-anchor="middle" x="705.27" y="-302.3" font-family="Times-Roman" font-size="14.00">azurerm_network_interface.nic</text>
</g>
<!-- [root] azurerm_public_ip.publicip (expand) -->
<g id="node3" class="node">
<title>[root] azurerm_public_ip.publicip (expand)</title>
<polygon fill="none" stroke="black" points="936.77,-180 735.77,-180 735.77,-144 936.77,-144 936.77,-180"/>
<text text-anchor="middle" x="836.27" y="-158.3" font-family="Times-Roman" font-size="14.00">azurerm_public_ip.publicip</text>
</g>
<!-- [root] azurerm_network_interface.nic (expand)&#45;&gt;[root] azurerm_public_ip.publicip (expand) -->
<g id="edge1" class="edge">
<title>[root] azurerm_network_interface.nic (expand)&#45;&gt;[root] azurerm_public_ip.publicip (expand)</title>
<path fill="none" stroke="black" d="M721.08,-287.87C744.09,-262.92 786.96,-216.45 813.42,-187.77"/>
<polygon fill="black" stroke="black" points="816.21,-189.91 820.42,-180.19 811.06,-185.17 816.21,-189.91"/>
</g>
<!-- [root] azurerm_subnet.subnet (expand) -->
<g id="node5" class="node">
<title>[root] azurerm_subnet.subnet (expand)</title>
<polygon fill="none" stroke="black" points="724.77,-252 543.77,-252 543.77,-216 724.77,-216 724.77,-252"/>
<text text-anchor="middle" x="634.27" y="-230.3" font-family="Times-Roman" font-size="14.00">azurerm_subnet.subnet</text>
</g>
<!-- [root] azurerm_network_interface.nic (expand)&#45;&gt;[root] azurerm_subnet.subnet (expand) -->
<g id="edge2" class="edge">
<title>[root] azurerm_network_interface.nic (expand)&#45;&gt;[root] azurerm_subnet.subnet (expand)</title>
<path fill="none" stroke="black" d="M687.72,-287.7C679.04,-279.14 668.41,-268.66 658.93,-259.3"/>
<polygon fill="black" stroke="black" points="661.2,-256.63 651.62,-252.1 656.29,-261.62 661.2,-256.63"/>
</g>
<!-- [root] azurerm_network_security_group.nsg (expand) -->
<g id="node2" class="node">
<title>[root] azurerm_network_security_group.nsg (expand)</title>
<polygon fill="none" stroke="black" points="604.27,-540 328.27,-540 328.27,-504 604.27,-504 604.27,-540"/>
<text text-anchor="middle" x="466.27" y="-518.3" font-family="Times-Roman" font-size="14.00">azurerm_network_security_group.nsg</text>
</g>
<!-- [root] azurerm_resource_group.rg (expand) -->
<g id="node4" class="node">
<title>[root] azurerm_resource_group.rg (expand)</title>
<polygon fill="none" stroke="black" points="709.27,-108 503.27,-108 503.27,-72 709.27,-72 709.27,-108"/>
<text text-anchor="middle" x="606.27" y="-86.3" font-family="Times-Roman" font-size="14.00">azurerm_resource_group.rg</text>
</g>
<!-- [root] azurerm_network_security_group.nsg (expand)&#45;&gt;[root] azurerm_resource_group.rg (expand) -->
<g id="edge3" class="edge">
<title>[root] azurerm_network_security_group.nsg (expand)&#45;&gt;[root] azurerm_resource_group.rg (expand)</title>
<path fill="none" stroke="black" d="M466.27,-503.95C466.27,-477.29 466.27,-424.11 466.27,-379 466.27,-379 466.27,-379 466.27,-233 466.27,-192.55 459.71,-175.34 485.27,-144 496.48,-130.26 511.96,-119.98 528.1,-112.33"/>
<polygon fill="black" stroke="black" points="529.91,-115.36 537.66,-108.12 527.09,-108.95 529.91,-115.36"/>
</g>
<!-- [root] azurerm_public_ip.publicip (expand)&#45;&gt;[root] azurerm_resource_group.rg (expand) -->
<g id="edge4" class="edge">
<title>[root] azurerm_public_ip.publicip (expand)&#45;&gt;[root] azurerm_resource_group.rg (expand)</title>
<path fill="none" stroke="black" d="M780.3,-143.97C747.75,-134.06 706.53,-121.51 672.39,-111.12"/>
<polygon fill="black" stroke="black" points="673.08,-107.67 662.49,-108.11 671.04,-114.37 673.08,-107.67"/>
</g>
<!-- [root] provider[&quot;registry.terraform.io/hashicorp/azurerm&quot;] -->
<g id="node10" class="node">
<title>[root] provider[&quot;registry.terraform.io/hashicorp/azurerm&quot;]</title>
<polygon fill="none" stroke="black" points="403.27,-36 63.1,-18 403.27,0 743.45,-18 403.27,-36"/>
<text text-anchor="middle" x="403.27" y="-14.3" font-family="Times-Roman" font-size="14.00">provider[&quot;registry.terraform.io/hashicorp/azurerm&quot;]</text>
</g>
<!-- [root] azurerm_resource_group.rg (expand)&#45;&gt;[root] provider[&quot;registry.terraform.io/hashicorp/azurerm&quot;] -->
<g id="edge5" class="edge">
<title>[root] azurerm_resource_group.rg (expand)&#45;&gt;[root] provider[&quot;registry.terraform.io/hashicorp/azurerm&quot;]</title>
<path fill="none" stroke="black" d="M556.87,-71.97C526.37,-61.45 487.26,-47.96 456.14,-37.23"/>
<polygon fill="black" stroke="black" points="456.93,-33.8 446.34,-33.85 454.65,-40.42 456.93,-33.8"/>
</g>
<!-- [root] var.location -->
<g id="node13" class="node">
<title>[root] var.location</title>
<polygon fill="none" stroke="black" points="851.27,-36 761.27,-36 761.27,0 857.27,0 857.27,-30 851.27,-36"/>
<polyline fill="none" stroke="black" points="851.27,-36 851.27,-30 "/>
<polyline fill="none" stroke="black" points="857.27,-30 851.27,-30 "/>
<text text-anchor="middle" x="809.27" y="-14.3" font-family="Times-Roman" font-size="14.00">var.location</text>
</g>
<!-- [root] azurerm_resource_group.rg (expand)&#45;&gt;[root] var.location -->
<g id="edge6" class="edge">
<title>[root] azurerm_resource_group.rg (expand)&#45;&gt;[root] var.location</title>
<path fill="none" stroke="black" d="M655.67,-71.97C684.58,-62 721.23,-49.36 751.48,-38.93"/>
<polygon fill="black" stroke="black" points="752.74,-42.2 761.06,-35.63 750.46,-35.58 752.74,-42.2"/>
</g>
<!-- [root] azurerm_virtual_network.vnet (expand) -->
<g id="node7" class="node">
<title>[root] azurerm_virtual_network.vnet (expand)</title>
<polygon fill="none" stroke="black" points="717.77,-180 494.77,-180 494.77,-144 717.77,-144 717.77,-180"/>
<text text-anchor="middle" x="606.27" y="-158.3" font-family="Times-Roman" font-size="14.00">azurerm_virtual_network.vnet</text>
</g>
<!-- [root] azurerm_subnet.subnet (expand)&#45;&gt;[root] azurerm_virtual_network.vnet (expand) -->
<g id="edge7" class="edge">
<title>[root] azurerm_subnet.subnet (expand)&#45;&gt;[root] azurerm_virtual_network.vnet (expand)</title>
<path fill="none" stroke="black" d="M627.35,-215.7C624.2,-207.81 620.4,-198.3 616.89,-189.55"/>
<polygon fill="black" stroke="black" points="620.08,-188.09 613.12,-180.1 613.58,-190.69 620.08,-188.09"/>
</g>
<!-- [root] azurerm_virtual_machine.vm (expand) -->
<g id="node6" class="node">
<title>[root] azurerm_virtual_machine.vm (expand)</title>
<polygon fill="none" stroke="black" points="819.77,-396 602.77,-396 602.77,-360 819.77,-360 819.77,-396"/>
<text text-anchor="middle" x="711.27" y="-374.3" font-family="Times-Roman" font-size="14.00">azurerm_virtual_machine.vm</text>
</g>
<!-- [root] azurerm_virtual_machine.vm (expand)&#45;&gt;[root] azurerm_network_interface.nic (expand) -->
<g id="edge8" class="edge">
<title>[root] azurerm_virtual_machine.vm (expand)&#45;&gt;[root] azurerm_network_interface.nic (expand)</title>
<path fill="none" stroke="black" d="M709.79,-359.7C709.13,-351.98 708.33,-342.71 707.6,-334.11"/>
<polygon fill="black" stroke="black" points="711.08,-333.77 706.74,-324.1 704.11,-334.37 711.08,-333.77"/>
</g>
<!-- [root] var.admin_password -->
<g id="node11" class="node">
<title>[root] var.admin_password</title>
<polygon fill="none" stroke="black" points="990.27,-324 838.27,-324 838.27,-288 996.27,-288 996.27,-318 990.27,-324"/>
<polyline fill="none" stroke="black" points="990.27,-324 990.27,-318 "/>
<polyline fill="none" stroke="black" points="996.27,-318 990.27,-318 "/>
<text text-anchor="middle" x="917.27" y="-302.3" font-family="Times-Roman" font-size="14.00">var.admin_password</text>
</g>
<!-- [root] azurerm_virtual_machine.vm (expand)&#45;&gt;[root] var.admin_password -->
<g id="edge9" class="edge">
<title>[root] azurerm_virtual_machine.vm (expand)&#45;&gt;[root] var.admin_password</title>
<path fill="none" stroke="black" d="M761.4,-359.97C790.31,-350.14 826.84,-337.73 857.27,-327.39"/>
<polygon fill="black" stroke="black" points="858.58,-330.64 866.92,-324.11 856.32,-324.01 858.58,-330.64"/>
</g>
<!-- [root] var.admin_username -->
<g id="node12" class="node">
<title>[root] var.admin_username</title>
<polygon fill="none" stroke="black" points="1169.77,-324 1014.77,-324 1014.77,-288 1175.77,-288 1175.77,-318 1169.77,-324"/>
<polyline fill="none" stroke="black" points="1169.77,-324 1169.77,-318 "/>
<polyline fill="none" stroke="black" points="1175.77,-318 1169.77,-318 "/>
<text text-anchor="middle" x="1095.27" y="-302.3" font-family="Times-Roman" font-size="14.00">var.admin_username</text>
</g>
<!-- [root] azurerm_virtual_machine.vm (expand)&#45;&gt;[root] var.admin_username -->
<g id="edge10" class="edge">
<title>[root] azurerm_virtual_machine.vm (expand)&#45;&gt;[root] var.admin_username</title>
<path fill="none" stroke="black" d="M806.97,-359.96C861.9,-350.12 932.43,-337.42 1004.19,-324.19"/>
<polygon fill="black" stroke="black" points="1005.13,-327.58 1014.33,-322.32 1003.86,-320.7 1005.13,-327.58"/>
</g>
<!-- [root] var.sku -->
<g id="node14" class="node">
<title>[root] var.sku</title>
<polygon fill="none" stroke="black" points="566.27,-324 506.27,-324 506.27,-288 572.27,-288 572.27,-318 566.27,-324"/>
<polyline fill="none" stroke="black" points="566.27,-324 566.27,-318 "/>
<polyline fill="none" stroke="black" points="572.27,-318 566.27,-318 "/>
<text text-anchor="middle" x="539.27" y="-302.3" font-family="Times-Roman" font-size="14.00">var.sku</text>
</g>
<!-- [root] azurerm_virtual_machine.vm (expand)&#45;&gt;[root] var.sku -->
<g id="edge11" class="edge">
<title>[root] azurerm_virtual_machine.vm (expand)&#45;&gt;[root] var.sku</title>
<path fill="none" stroke="black" d="M669.2,-359.88C642.62,-349.06 608.4,-335.13 581.75,-324.29"/>
<polygon fill="black" stroke="black" points="582.89,-320.97 572.31,-320.44 580.25,-327.46 582.89,-320.97"/>
</g>
<!-- [root] azurerm_virtual_network.vnet (expand)&#45;&gt;[root] azurerm_resource_group.rg (expand) -->
<g id="edge12" class="edge">
<title>[root] azurerm_virtual_network.vnet (expand)&#45;&gt;[root] azurerm_resource_group.rg (expand)</title>
<path fill="none" stroke="black" d="M606.27,-143.7C606.27,-135.98 606.27,-126.71 606.27,-118.11"/>
<polygon fill="black" stroke="black" points="609.77,-118.1 606.27,-108.1 602.77,-118.1 609.77,-118.1"/>
</g>
<!-- [root] data.azurerm_public_ip.ip (expand) -->
<g id="node8" class="node">
<title>[root] data.azurerm_public_ip.ip (expand)</title>
<polygon fill="none" stroke="black" points="808.27,-468 614.27,-468 614.27,-432 808.27,-432 808.27,-468"/>
<text text-anchor="middle" x="711.27" y="-446.3" font-family="Times-Roman" font-size="14.00">data.azurerm_public_ip.ip</text>
</g>
<!-- [root] data.azurerm_public_ip.ip (expand)&#45;&gt;[root] azurerm_virtual_machine.vm (expand) -->
<g id="edge13" class="edge">
<title>[root] data.azurerm_public_ip.ip (expand)&#45;&gt;[root] azurerm_virtual_machine.vm (expand)</title>
<path fill="none" stroke="black" d="M711.27,-431.7C711.27,-423.98 711.27,-414.71 711.27,-406.11"/>
<polygon fill="black" stroke="black" points="714.77,-406.1 711.27,-396.1 707.77,-406.1 714.77,-406.1"/>
</g>
<!-- [root] output.public_ip_address -->
<g id="node9" class="node">
<title>[root] output.public_ip_address</title>
<polygon fill="none" stroke="black" points="806.27,-540 622.27,-540 622.27,-504 812.27,-504 812.27,-534 806.27,-540"/>
<polyline fill="none" stroke="black" points="806.27,-540 806.27,-534 "/>
<polyline fill="none" stroke="black" points="812.27,-534 806.27,-534 "/>
<text text-anchor="middle" x="717.27" y="-518.3" font-family="Times-Roman" font-size="14.00">output.public_ip_address</text>
</g>
<!-- [root] output.public_ip_address&#45;&gt;[root] data.azurerm_public_ip.ip (expand) -->
<g id="edge17" class="edge">
<title>[root] output.public_ip_address&#45;&gt;[root] data.azurerm_public_ip.ip (expand)</title>
<path fill="none" stroke="black" d="M715.79,-503.7C715.13,-495.98 714.33,-486.71 713.6,-478.11"/>
<polygon fill="black" stroke="black" points="717.08,-477.77 712.74,-468.1 710.11,-478.37 717.08,-477.77"/>
</g>
<!-- [root] var.tags -->
<g id="node15" class="node">
<title>[root] var.tags</title>
<polygon fill="none" stroke="black" points="896.27,-540 830.27,-540 830.27,-504 902.27,-504 902.27,-534 896.27,-540"/>
<polyline fill="none" stroke="black" points="896.27,-540 896.27,-534 "/>
<polyline fill="none" stroke="black" points="902.27,-534 896.27,-534 "/>
<text text-anchor="middle" x="866.27" y="-518.3" font-family="Times-Roman" font-size="14.00">var.tags</text>
</g>
<!-- [root] meta.count&#45;boundary (EachMode fixup) -->
<g id="node16" class="node">
<title>[root] meta.count&#45;boundary (EachMode fixup)</title>
<ellipse fill="none" stroke="black" cx="836.27" cy="-594" rx="217.96" ry="18"/>
<text text-anchor="middle" x="836.27" y="-590.3" font-family="Times-Roman" font-size="14.00">[root] meta.count&#45;boundary (EachMode fixup)</text>
</g>
<!-- [root] meta.count&#45;boundary (EachMode fixup)&#45;&gt;[root] azurerm_network_security_group.nsg (expand) -->
<g id="edge14" class="edge">
<title>[root] meta.count&#45;boundary (EachMode fixup)&#45;&gt;[root] azurerm_network_security_group.nsg (expand)</title>
<path fill="none" stroke="black" d="M753.24,-577.29C697.85,-566.81 624.73,-552.98 566.16,-541.9"/>
<polygon fill="black" stroke="black" points="566.62,-538.42 556.15,-540 565.32,-545.3 566.62,-538.42"/>
</g>
<!-- [root] meta.count&#45;boundary (EachMode fixup)&#45;&gt;[root] output.public_ip_address -->
<g id="edge15" class="edge">
<title>[root] meta.count&#45;boundary (EachMode fixup)&#45;&gt;[root] output.public_ip_address</title>
<path fill="none" stroke="black" d="M807.47,-576.05C791.8,-566.84 772.21,-555.32 755.3,-545.37"/>
<polygon fill="black" stroke="black" points="756.62,-542.09 746.23,-540.03 753.07,-548.12 756.62,-542.09"/>
</g>
<!-- [root] meta.count&#45;boundary (EachMode fixup)&#45;&gt;[root] var.tags -->
<g id="edge16" class="edge">
<title>[root] meta.count&#45;boundary (EachMode fixup)&#45;&gt;[root] var.tags</title>
<path fill="none" stroke="black" d="M843.69,-575.7C847.07,-567.81 851.14,-558.3 854.9,-549.55"/>
<polygon fill="black" stroke="black" points="858.22,-550.67 858.94,-540.1 851.79,-547.92 858.22,-550.67"/>
</g>
<!-- [root] provider[&quot;registry.terraform.io/hashicorp/azurerm&quot;] (close) -->
<g id="node17" class="node">
<title>[root] provider[&quot;registry.terraform.io/hashicorp/azurerm&quot;] (close)</title>
<ellipse fill="none" stroke="black" cx="300.27" cy="-594" rx="300.05" ry="18"/>
<text text-anchor="middle" x="300.27" y="-590.3" font-family="Times-Roman" font-size="14.00">[root] provider[&quot;registry.terraform.io/hashicorp/azurerm&quot;] (close)</text>
</g>
<!-- [root] provider[&quot;registry.terraform.io/hashicorp/azurerm&quot;] (close)&#45;&gt;[root] azurerm_network_security_group.nsg (expand) -->
<g id="edge18" class="edge">
<title>[root] provider[&quot;registry.terraform.io/hashicorp/azurerm&quot;] (close)&#45;&gt;[root] azurerm_network_security_group.nsg (expand)</title>
<path fill="none" stroke="black" d="M340.46,-576.05C363.33,-566.41 392.17,-554.25 416.47,-544"/>
<polygon fill="black" stroke="black" points="418.03,-547.14 425.88,-540.03 415.31,-540.69 418.03,-547.14"/>
</g>
<!-- [root] provider[&quot;registry.terraform.io/hashicorp/azurerm&quot;] (close)&#45;&gt;[root] data.azurerm_public_ip.ip (expand) -->
<g id="edge19" class="edge">
<title>[root] provider[&quot;registry.terraform.io/hashicorp/azurerm&quot;] (close)&#45;&gt;[root] data.azurerm_public_ip.ip (expand)</title>
<path fill="none" stroke="black" d="M298.6,-575.8C297.66,-555.51 299.57,-522.26 319.27,-504 359.55,-466.67 502.48,-455.3 604.1,-452.02"/>
<polygon fill="black" stroke="black" points="604.22,-455.52 614.11,-451.72 604.01,-448.52 604.22,-455.52"/>
</g>
<!-- [root] root -->
<g id="node18" class="node">
<title>[root] root</title>
<ellipse fill="none" stroke="black" cx="568.27" cy="-666" rx="55.79" ry="18"/>
<text text-anchor="middle" x="568.27" y="-662.3" font-family="Times-Roman" font-size="14.00">[root] root</text>
</g>
<!-- [root] root&#45;&gt;[root] meta.count&#45;boundary (EachMode fixup) -->
<g id="edge20" class="edge">
<title>[root] root&#45;&gt;[root] meta.count&#45;boundary (EachMode fixup)</title>
<path fill="none" stroke="black" d="M610.15,-654.06C651.26,-643.32 714.8,-626.73 764.06,-613.86"/>
<polygon fill="black" stroke="black" points="765.24,-617.17 774.03,-611.26 763.47,-610.4 765.24,-617.17"/>
</g>
<!-- [root] root&#45;&gt;[root] provider[&quot;registry.terraform.io/hashicorp/azurerm&quot;] (close) -->
<g id="edge21" class="edge">
<title>[root] root&#45;&gt;[root] provider[&quot;registry.terraform.io/hashicorp/azurerm&quot;] (close)</title>
<path fill="none" stroke="black" d="M526.4,-654.06C485.7,-643.43 423.03,-627.06 373.97,-614.25"/>
<polygon fill="black" stroke="black" points="374.6,-610.8 364.04,-611.66 372.83,-617.57 374.6,-610.8"/>
</g>
</g>
</svg>
